Coordinates
version=1
nRows=54
nColumns=12
inDegrees=yes

Units are S.I. units (second, meters, Newtons, ...)
Angles are in degrees

endheader
time	SC_y	SC_z	SC_x	AC_y	AC_z	AC_x	GH_y	GH_z	GH_yy	EL_x	PS_y
       0.0              -54.21          6.734          76.45          45.74          1.133          -18.6         -85.86          4.612         -105.0          108.9          129.4
   0.01588              -54.21          6.735          76.44          45.74          1.134         -18.59         -85.86          4.612         -105.0          108.9          129.4
   0.03175              -54.21          6.736          76.44          45.74          1.134         -18.59         -85.85          4.611         -104.9          108.9          129.4
   0.04763              -54.22          6.736          76.43          45.74          1.135         -18.58         -85.85          4.611         -104.9          108.9          129.3
   0.06351              -54.22          6.737          76.42          45.74          1.136         -18.58         -85.84           4.61         -104.9          108.9          129.3
   0.07939              -54.22          6.738          76.42          45.74          1.136         -18.57         -85.84           4.61         -104.9          108.9          129.3
   0.09526              -54.22          6.739          76.41          45.74          1.137         -18.56         -85.83          4.609         -104.9          108.9          129.3
    0.1111              -54.22          6.741           76.4          45.74          1.138         -18.55         -85.82          4.609         -104.9          108.8          129.2
     0.127              -54.22          6.742          76.39          45.74          1.139         -18.55         -85.82          4.608         -104.9          108.8          129.2
    0.1429              -54.22          6.743          76.38          45.74           1.14         -18.54         -85.81          4.607         -104.9          108.8          129.2
    0.1588              -54.22          6.744          76.37          45.74           1.14         -18.53          -85.8          4.606         -104.9          108.8          129.2
    0.1746              -54.22          6.746          76.36          45.74          1.141         -18.52         -85.79          4.605         -104.8          108.7          129.1
    0.1905              -54.23          6.748          76.35          45.74          1.143         -18.51         -85.78          4.605         -104.8          108.7          129.1
    0.2064              -54.23          6.749          76.34          45.74          1.144         -18.49         -85.77          4.604         -104.8          108.7          129.0
    0.2223              -54.23          6.751          76.33          45.74          1.145         -18.48         -85.76          4.602         -104.8          108.7          129.0
    0.2382              -54.23          6.753          76.31          45.74          1.146         -18.47         -85.75          4.601         -104.8          108.6          129.0
     0.254              -54.23          6.756           76.3          45.74          1.148         -18.45         -85.74            4.6         -104.8          108.6          128.9
    0.2699              -54.23          6.758          76.28          45.74           1.15         -18.43         -85.72          4.599         -104.7          108.6          128.8
    0.2858              -54.24          6.761          76.26          45.74          1.151         -18.42         -85.71          4.597         -104.7          108.5          128.8
    0.3017              -54.24          6.764          76.24          45.74          1.153         -18.39         -85.69          4.595         -104.7          108.5          128.7
    0.3175              -54.24          6.767          76.22          45.74          1.156         -18.37         -85.67          4.594         -104.6          108.4          128.7
    0.3334              -54.24           6.77          76.19          45.74          1.158         -18.35         -85.65          4.592         -104.6          108.4          128.6
    0.3493              -54.25          6.774          76.17          45.74          1.161         -18.32         -85.63          4.589         -104.6          108.3          128.5
    0.3652              -54.25          6.779          76.14          45.74          1.164         -18.29         -85.61          4.587         -104.5          108.2          128.4
     0.381              -54.26          6.784           76.1          45.74          1.167         -18.26         -85.58          4.584         -104.5          108.1          128.3
    0.3969              -54.26          6.789          76.07          45.74           1.17         -18.22         -85.55          4.581         -104.4          108.1          128.2
    0.4128              -54.27          6.795          76.02          45.74          1.174         -18.18         -85.52          4.578         -104.4          108.0          128.0
    0.4287              -54.27          6.802          75.98          45.74          1.179         -18.13         -85.48          4.574         -104.3          107.9          127.9
    0.4446              -54.28          6.809          75.92          45.75          1.184         -18.08         -85.43          4.569         -104.2          107.7          127.7
    0.4604              -54.29          6.818          75.86          45.75           1.19         -18.02         -85.38          4.565         -104.2          107.6          127.5
    0.4763              -54.29          6.828          75.79          45.75          1.197         -17.95         -85.33          4.559         -104.1          107.4          127.3
    0.4922               -54.3          6.839          75.71          45.75          1.204         -17.87         -85.26          4.552         -103.9          107.3          127.0
    0.5081              -54.32          6.853          75.62          45.75          1.213         -17.78         -85.19          4.545         -103.8          107.0          126.7
    0.5239              -54.33          6.868          75.52          45.75          1.224         -17.68          -85.1          4.536         -103.7          106.8          126.4
    0.5398              -54.34          6.886          75.39          45.76          1.236         -17.55          -85.0          4.526         -103.5          106.5          126.0
    0.5557              -54.36          6.907          75.25          45.76           1.25         -17.41         -84.88          4.514         -103.3          106.2          125.5
    0.5716              -54.38          6.932          75.07          45.76          1.267         -17.24         -84.74            4.5         -103.1          105.8          125.0
    0.5875              -54.41          6.962          74.86          45.77          1.287         -17.03         -84.57          4.483         -102.8          105.3          124.3
    0.6033              -54.44          6.998          74.61          45.77          1.312         -16.78         -84.36          4.462         -102.4          104.7          123.5
    0.6192              -54.48          7.043           74.3          45.78          1.342         -16.47         -84.11          4.437         -102.0          104.0          122.5
    0.6351              -54.52          7.097          73.92          45.78          1.378          -16.1          -83.8          4.406         -101.5          103.1          121.2
     0.651              -54.58          7.166          73.45          45.79          1.425         -15.62         -83.42          4.367         -100.8          102.0          119.7
    0.6668              -54.66          7.252          72.85          45.81          1.483         -15.03         -82.93          4.319         -99.96          100.6          117.8
    0.6827              -54.75          7.361          72.09          45.82          1.556         -14.28         -82.31          4.256          -98.9          98.88          115.3
    0.6986              -54.87          7.501          71.11          45.84          1.651         -13.31         -81.52          4.177         -97.55          96.64          112.2
    0.7145              -55.02          7.681          69.86          45.86          1.772         -12.07          -80.5          4.075         -95.81          93.76          108.2
    0.7303              -55.22           7.91          68.27          45.89          1.927         -10.49          -79.2          3.945          -93.6          90.08          103.0
    0.7462              -55.47          8.199          66.26          45.93          2.121         -8.504         -77.56          3.781         -90.81          85.45          96.56
    0.7621              -55.77           8.55          63.81          45.98          2.358         -6.081         -75.57          3.582         -87.41          79.81          88.67
     0.778              -56.12          8.958          60.98          46.04          2.633         -3.272         -73.26           3.35         -83.47          73.27          79.54
    0.7939               -56.5          9.399          57.91           46.1          2.931        -0.2302         -70.76            3.1         -79.21          66.19          69.64
    0.8097              -56.87           9.84          54.84          46.15          3.229          2.811         -68.26           2.85         -74.94          59.12          59.75
    0.8256              -57.22          10.25           52.0          46.21          3.504          5.621         -65.96          2.618          -71.0          52.58          50.62
    0.8415              -57.53           10.6          49.56          46.26          3.741          8.044         -63.96          2.419          -67.6          46.94          42.73
